<svg xmlns="http://www.w3.org/2000/svg">
  <symbol id="user" viewBox="0 0 24 24">
    <path fill="none" stroke="currentColor" stroke-width="2" d="M20 21v-2a4 4 0 0 0-4-4H8a4 4 0 0 0-4 4v2m8-10a4 4 0 0 1-4-4 4 4 0 0 1 4-4 4 4 0 0 1 4 4 4 4 0 0 1-4 4Z"/>
  </symbol>

  <!-- Servicios -->
  <symbol id="code" viewBox="0 0 24 24">
    <path fill="none" stroke="currentColor" stroke-width="2" stroke-linecap="round" stroke-linejoin="round" d="m16 18 6-6-6-6M8 6l-6 6 6 6"/>
  </symbol>

  <symbol id="smartphone" viewBox="0 0 24 24">
    <path fill="none" stroke="currentColor" stroke-width="2" stroke-linecap="round" stroke-linejoin="round" d="M17 2H7a2 2 0 0 0-2 2v16a2 2 0 0 0 2 2h10a2 2 0 0 0 2-2V4a2 2 0 0 0-2-2Z"/>
    <path fill="none" stroke="currentColor" stroke-width="2" d="M12 18h.01"/>
  </symbol>

  <symbol id="globe" viewBox="0 0 24 24">
    <circle fill="none" stroke="currentColor" stroke-width="2" cx="12" cy="12" r="10"/>
    <path fill="none" stroke="currentColor" stroke-width="2" d="M2 12h20M12 2a15.3 15.3 0 0 1 4 10 15.3 15.3 0 0 1-4 10 15.3 15.3 0 0 1-4-10 15.3 15.3 0 0 1 4-10z"/>
  </symbol>

  <!-- Valores -->
  <symbol id="lightbulb" viewBox="0 0 24 24">
    <path fill="none" stroke="currentColor" stroke-width="2" stroke-linecap="round" stroke-linejoin="round" d="M9 18h6M10 22h4M12 2a7 7 0 0 0-4 12.7V17h8v-2.3A7 7 0 0 0 12 2z"/>
  </symbol>

  <symbol id="handshake" viewBox="0 0 24 24">
    <path fill="none" stroke="currentColor" stroke-width="2" stroke-linecap="round" stroke-linejoin="round" d="m11 17 2 2a1 1 0 0 0 1.4 0l3.3-3.3a1 1 0 0 0 0-1.4L14 11M2 6l5.3-3.5a2 2 0 0 1 2 0L12 4l2.7-1.5a2 2 0 0 1 2 0L22 6v6l-3 2-3-2-3 2-3-2-3 2-3-2V6z"/>
  </symbol>

  <symbol id="shield-check" viewBox="0 0 24 24">
    <path fill="none" stroke="currentColor" stroke-width="2" stroke-linecap="round" stroke-linejoin="round" d="M12 22s8-4 8-10V5l-8-3-8 3v7c0 6 8 10 8 10z"/>
    <path fill="none" stroke="currentColor" stroke-width="2" stroke-linecap="round" stroke-linejoin="round" d="m9 12 2 2 4-4"/>
  </symbol>

  <symbol id="star" viewBox="0 0 24 24">
    <path fill="none" stroke="currentColor" stroke-width="2" stroke-linecap="round" stroke-linejoin="round" d="m12 2 3.09 6.26L22 9.27l-5 4.87 1.18 6.88L12 17.77l-6.18 3.25L7 14.14 2 9.27l6.91-1.01L12 2z"/>
  </symbol>

  <!-- Metodología -->
  <symbol id="search" viewBox="0 0 24 24">
    <circle fill="none" stroke="currentColor" stroke-width="2" cx="11" cy="11" r="8"/>
    <path fill="none" stroke="currentColor" stroke-width="2" stroke-linecap="round" d="m21 21-4.3-4.3"/>
  </symbol>

  <symbol id="layout" viewBox="0 0 24 24">
    <path fill="none" stroke="currentColor" stroke-width="2" stroke-linecap="round" stroke-linejoin="round" d="M19 3H5a2 2 0 0 0-2 2v14a2 2 0 0 0 2 2h14a2 2 0 0 0 2-2V5a2 2 0 0 0-2-2zM3 9h18M9 21V9"/>
  </symbol>

  <symbol id="rocket" viewBox="0 0 24 24">
    <path fill="none" stroke="currentColor" stroke-width="2" stroke-linecap="round" stroke-linejoin="round" d="M4.5 16.5c-1.5 1.26-2 5-2 5s3.74-.5 5-2c.71-.84.7-2.13-.09-2.91a2.18 2.18 0 0 0-2.91-.09zM12 15l-3-3a22 22 0 0 1 2-3.95A12.88 12.88 0 0 1 22 2c0 2.72-.78 7.5-6 11a22.35 22.35 0 0 1-4 2z"/>
    <path fill="none" stroke="currentColor" stroke-width="2" stroke-linecap="round" stroke-linejoin="round" d="M9 12H4s.55-3.03 2-4c1.62-1.08 5 0 5 0M12 15v5s3.03-.55 4-2c1.08-1.62 0-5 0-5"/>
  </symbol>

  <!-- Contacto y redes -->
  <symbol id="whatsapp" viewBox="0 0 24 24">
    <path fill="currentColor" d="M17.472 14.382c-.297-.149-1.758-.867-2.03-.967-.273-.099-.471-.148-.67.15-.197.297-.767.966-.94 1.164-.173.199-.347.223-.644.075-.297-.15-1.255-.463-2.39-1.475-.883-.788-1.48-1.761-1.653-2.059-.173-.297-.018-.458.13-.606.134-.133.298-.347.446-.52.149-.174.198-.298.298-.497.099-.198.05-.371-.025-.52-.075-.149-.669-1.612-.916-2.207-.242-.579-.487-.5-.669-.51-.173-.008-.371-.01-.57-.01-.198 0-.52.074-.792.372-.272.297-1.04 1.016-1.04 2.479 0 1.462 1.065 2.875 1.213 3.074.149.198 2.096 3.2 5.077 4.487.709.306 1.262.489 1.694.625.712.227 1.36.195 1.871.118.571-.085 1.758-.719 2.006-1.413.248-.694.248-1.289.173-1.413-.074-.124-.272-.198-.57-.347m-5.421 7.403h-.004a9.87 9.87 0 0 1-5.031-1.378l-.361-.214-3.741.982.998-3.648-.235-.374a9.86 9.86 0 0 1-1.51-5.26c.001-5.45 4.436-9.884 9.888-9.884 2.64 0 5.122 1.03 6.988 2.898a9.825 9.825 0 0 1 2.893 6.994c-.003 5.45-4.437 9.884-9.885 9.884m8.413-18.297A11.815 11.815 0 0 0 12.05 0C5.495 0 .16 5.335.157 11.892c0 2.096.547 4.142 1.588 5.945L.057 24l6.305-1.654a11.882 11.882 0 0 0 5.683 1.448h.005c6.554 0 11.89-5.335 11.893-11.893a11.821 11.821 0 0 0-3.48-8.413z"/>
  </symbol>

  <symbol id="mail" viewBox="0 0 24 24">
    <path fill="none" stroke="currentColor" stroke-width="2" stroke-linecap="round" stroke-linejoin="round" d="M4 4h16c1.1 0 2 .9 2 2v12c0 1.1-.9 2-2 2H4c-1.1 0-2-.9-2-2V6c0-1.1.9-2 2-2z"/>
    <path fill="none" stroke="currentColor" stroke-width="2" stroke-linecap="round" stroke-linejoin="round" d="m22 6-10 7L2 6"/>
  </symbol>

  <symbol id="phone" viewBox="0 0 24 24">
    <path fill="none" stroke="currentColor" stroke-width="2" stroke-linecap="round" stroke-linejoin="round" d="M22 16.92v3a2 2 0 0 1-2.18 2 19.79 19.79 0 0 1-8.63-3.07 19.5 19.5 0 0 1-6-6 19.79 19.79 0 0 1-3.07-8.67A2 2 0 0 1 4.11 2h3a2 2 0 0 1 2 1.72 12.84 12.84 0 0 0 .7 2.81 2 2 0 0 1-.45 2.11L8.09 9.91a16 16 0 0 0 6 6l1.27-1.27a2 2 0 0 1 2.11-.45 12.84 12.84 0 0 0 2.81.7A2 2 0 0 1 22 16.92z"/>
  </symbol>

  <symbol id="map-pin" viewBox="0 0 24 24">
    <path fill="none" stroke="currentColor" stroke-width="2" stroke-linecap="round" stroke-linejoin="round" d="M21 10c0 7-9 13-9 13s-9-6-9-13a9 9 0 0 1 18 0z"/>
    <circle fill="none" stroke="currentColor" stroke-width="2" cx="12" cy="10" r="3"/>
  </symbol>

  <symbol id="check-circle" viewBox="0 0 24 24">
    <path fill="none" stroke="currentColor" stroke-width="2" stroke-linecap="round" stroke-linejoin="round" d="M22 11.08V12a10 10 0 1 1-5.93-9.14"/>
    <path fill="none" stroke="currentColor" stroke-width="2" stroke-linecap="round" stroke-linejoin="round" d="M22 4 12 14.01l-3-3"/>
  </symbol>

  <symbol id="chevron-down" viewBox="0 0 24 24">
    <path fill="none" stroke="currentColor" stroke-width="2" stroke-linecap="round" stroke-linejoin="round" d="m6 9 6 6 6-6"/>
  </symbol>

  <symbol id="menu" viewBox="0 0 24 24">
    <path fill="none" stroke="currentColor" stroke-width="2" stroke-linecap="round" d="M4 12h16M4 6h16M4 18h16"/>
  </symbol>

  <symbol id="x" viewBox="0 0 24 24">
    <path fill="none" stroke="currentColor" stroke-width="2" stroke-linecap="round" d="M18 6 6 18M6 6l12 12"/>
  </symbol>

  <symbol id="arrow-right" viewBox="0 0 24 24">
    <path fill="none" stroke="currentColor" stroke-width="2" stroke-linecap="round" stroke-linejoin="round" d="M5 12h14m-7-7 7 7-7 7"/>
  </symbol>

  <symbol id="facebook" viewBox="0 0 24 24">
    <path fill="currentColor" d="M24 12.073c0-6.627-5.373-12-12-12s-12 5.373-12 12c0 5.99 4.388 10.954 10.125 11.854v-8.385H7.078v-3.47h3.047V9.43c0-3.007 1.792-4.669 4.533-4.669 1.312 0 2.686.235 2.686.235v2.953H15.83c-1.491 0-1.956.925-1.956 1.874v2.25h3.328l-.532 3.47h-2.796v8.385C19.612 23.027 24 18.062 24 12.073z"/>
  </symbol>

  <symbol id="quote" viewBox="0 0 24 24">
    <path fill="currentColor" d="M14.017 21v-7.391c0-5.704 3.731-9.57 8.983-10.609l.995 2.151c-2.432.917-3.995 3.638-3.995 5.849h4v10h-9.983zM0 21v-7.391c0-5.704 3.748-9.57 9-10.609l.996 2.151c-2.433.917-3.996 3.638-3.996 5.849h3.983v10H0z"/>
  </symbol>

  <symbol id="clipboard-medical" viewBox="0 0 24 24" fill="none" stroke="currentColor" stroke-width="2" stroke-linecap="round" stroke-linejoin="round">
    <rect x="8" y="2" width="8" height="4" rx="1" ry="1"/>
    <path d="M16 4h2a2 2 0 0 1 2 2v14a2 2 0 0 1-2 2H6a2 2 0 0 1-2-2V6a2 2 0 0 1 2-2h2"/>
    <line x1="12" y1="11" x2="12" y2="17"/>
    <line x1="9" y1="14" x2="15" y2="14"/>
  </symbol>

  <symbol id="calendar-check" viewBox="0 0 24 24" fill="none" stroke="currentColor" stroke-width="2" stroke-linecap="round" stroke-linejoin="round">
    <rect x="3" y="4" width="18" height="18" rx="2" ry="2"/>
    <line x1="16" y1="2" x2="16" y2="6"/>
    <line x1="8" y1="2" x2="8" y2="6"/>
    <line x1="3" y1="10" x2="21" y2="10"/>
    <polyline points="9 16 11 18 15 14"/>
  </symbol>

  <symbol id="credit-card" viewBox="0 0 24 24" fill="none" stroke="currentColor" stroke-width="2" stroke-linecap="round" stroke-linejoin="round">
    <rect x="1" y="4" width="22" height="16" rx="2" ry="2"/>
    <line x1="1" y1="10" x2="23" y2="10"/>
  </symbol>

  <symbol id="database" viewBox="0 0 24 24" fill="none" stroke="currentColor" stroke-width="2" stroke-linecap="round" stroke-linejoin="round">
    <ellipse cx="12" cy="5" rx="9" ry="3"/>
    <path d="M21 12c0 1.66-4 3-9 3s-9-1.34-9-3"/>
    <path d="M3 5v14c0 1.66 4 3 9 3s9-1.34 9-3V5"/>
  </symbol>

  <symbol id="brain" viewBox="0 0 24 24" fill="none" stroke="currentColor" stroke-width="2" stroke-linecap="round" stroke-linejoin="round">
    <path d="M9.5 2A2.5 2.5 0 0 1 12 4.5v15a2.5 2.5 0 0 1-4.96-.44 2.5 2.5 0 0 1-2.96-3.08 3 3 0 0 1-.34-5.58 2.5 2.5 0 0 1 1.32-4.24 2.5 2.5 0 0 1 4.44-1.66z"/>
    <path d="M14.5 2A2.5 2.5 0 0 0 12 4.5v15a2.5 2.5 0 0 0 4.96-.44 2.5 2.5 0 0 0 2.96-3.08 3 3 0 0 0 .34-5.58 2.5 2.5 0 0 0-1.32-4.24 2.5 2.5 0 0 0-4.44-1.66z"/>
  </symbol>

  <symbol id="monitor-heart" viewBox="0 0 24 24" fill="none" stroke="currentColor" stroke-width="2" stroke-linecap="round" stroke-linejoin="round">
    <path d="M4.5 6H20a2 2 0 0 1 2 2v10a2 2 0 0 1-2 2H4a2 2 0 0 1-2-2V8a2 2 0 0 1 2-2"/>
    <polyline points="2 20 22 20"/>
    <polyline points="5 12 8 9 10 13 12 10 14 12 17 9 19 12"/>
  </symbol>

  <symbol id="flask" viewBox="0 0 24 24" fill="none" stroke="currentColor" stroke-width="2" stroke-linecap="round" stroke-linejoin="round">
    <path d="M9 3h6M9 3v8l-4.343 7.543A2 2 0 0 0 6.396 21h11.208a2 2 0 0 0 1.74-2.457L15 11V3"/>
    <line x1="6" y1="16" x2="18" y2="16"/>
  </symbol>

  <symbol id="trending-up" viewBox="0 0 24 24" fill="none" stroke="currentColor" stroke-width="2" stroke-linecap="round" stroke-linejoin="round">
    <polyline points="23 6 13.5 15.5 8.5 10.5 1 18"/>
    <polyline points="17 6 23 6 23 12"/>
  </symbol>

  <symbol id="building-hospital" viewBox="0 0 24 24" fill="none" stroke="currentColor" stroke-width="2" stroke-linecap="round" stroke-linejoin="round">
    <path d="M3 9l9-7 9 7v11a2 2 0 0 1-2 2H5a2 2 0 0 1-2-2z"/>
    <line x1="12" y1="7" x2="12" y2="13"/>
    <line x1="9" y1="10" x2="15" y2="10"/>
  </symbol>

  <symbol id="users-group" viewBox="0 0 24 24" fill="none" stroke="currentColor" stroke-width="2" stroke-linecap="round" stroke-linejoin="round">
    <path d="M17 21v-2a4 4 0 0 0-4-4H5a4 4 0 0 0-4 4v2"/>
    <circle cx="9" cy="7" r="4"/>
    <path d="M23 21v-2a4 4 0 0 0-3-3.87"/>
    <path d="M16 3.13a4 4 0 0 1 0 7.75"/>
  </symbol>

  <symbol id="clock-check" viewBox="0 0 24 24" fill="none" stroke="currentColor" stroke-width="2" stroke-linecap="round" stroke-linejoin="round">
    <circle cx="12" cy="12" r="10"/>
    <polyline points="12 6 12 12 16 14"/>
    <polyline points="9 17 11 19 15 15"/>
  </symbol>

  <symbol id="file-text" viewBox="0 0 24 24" fill="none" stroke="currentColor" stroke-width="2" stroke-linecap="round" stroke-linejoin="round">
    <path d="M14 2H6a2 2 0 0 0-2 2v16a2 2 0 0 0 2 2h12a2 2 0 0 0 2-2V8z"/>
    <polyline points="14 2 14 8 20 8"/>
    <line x1="16" y1="13" x2="8" y2="13"/>
    <line x1="16" y1="17" x2="8" y2="17"/>
    <line x1="10" y1="9" x2="8" y2="9"/>
  </symbol>

  <symbol id="chart-bar" viewBox="0 0 24 24" fill="none" stroke="currentColor" stroke-width="2" stroke-linecap="round" stroke-linejoin="round">
    <line x1="18" y1="20" x2="18" y2="10"/>
    <line x1="12" y1="20" x2="12" y2="4"/>
    <line x1="6" y1="20" x2="6" y2="14"/>
    <line x1="2" y1="20" x2="22" y2="20"/>
  </symbol>

  <symbol id="coins" viewBox="0 0 24 24" fill="none" stroke="currentColor" stroke-width="2" stroke-linecap="round" stroke-linejoin="round">
    <ellipse cx="9" cy="7" rx="6" ry="3"/>
    <path d="M3 7v6c0 1.66 2.69 3 6 3s6-1.34 6-3V7"/>
    <path d="M21 7c0 1.66-2.69 3-6 3a9 9 0 0 1-1.15-.07"/>
    <path d="M15 13v6c0 1.66-2.69 3-6 3s-6-1.34-6-3v-3"/>
    <path d="M15 7v6c0 1.31-1.6 2.45-4 2.86"/>
  </symbol>

  <symbol id="link-chain" viewBox="0 0 24 24" fill="none" stroke="currentColor" stroke-width="2" stroke-linecap="round" stroke-linejoin="round">
    <path d="M10 13a5 5 0 0 0 7.54.54l3-3a5 5 0 0 0-7.07-7.07l-1.72 1.71"/>
    <path d="M14 11a5 5 0 0 0-7.54-.54l-3 3a5 5 0 0 0 7.07 7.07l1.71-1.71"/>
  </symbol>

  <symbol id="warehouse" viewBox="0 0 24 24" fill="none" stroke="currentColor" stroke-width="2" stroke-linecap="round" stroke-linejoin="round">
    <path d="M22 8.35V20a2 2 0 0 1-2 2H4a2 2 0 0 1-2-2V8.35A2 2 0 0 1 3.26 6.5l8-3.2a2 2 0 0 1 1.48 0l8 3.2A2 2 0 0 1 22 8.35z"/>
    <polyline points="6 18 6 12 18 12 18 18"/>
    <line x1="12" y1="12" x2="12" y2="18"/>
  </symbol>

  <symbol id="package" viewBox="0 0 24 24" fill="none" stroke="currentColor" stroke-width="2" stroke-linecap="round" stroke-linejoin="round">
    <polyline points="21 8 21 21 3 21 3 8"/>
    <rect x="1" y="3" width="22" height="5"/>
    <line x1="10" y1="12" x2="14" y2="12"/>
  </symbol>

  <symbol id="layers" viewBox="0 0 24 24" fill="none" stroke="currentColor" stroke-width="2" stroke-linecap="round" stroke-linejoin="round">
    <polygon points="12 2 2 7 12 12 22 7 12 2"/>
    <polyline points="2 17 12 22 22 17"/>
    <polyline points="2 12 12 17 22 12"/>
  </symbol>

  <symbol id="bell" viewBox="0 0 24 24" fill="none" stroke="currentColor" stroke-width="2" stroke-linecap="round" stroke-linejoin="round">
    <path d="M18 8A6 6 0 0 0 6 8c0 7-3 9-3 9h18s-3-2-3-9"/>
    <path d="M13.73 21a2 2 0 0 1-3.46 0"/>
  </symbol>

  <symbol id="barcode" viewBox="0 0 24 24" fill="none" stroke="currentColor" stroke-width="2" stroke-linecap="round" stroke-linejoin="round">
    <path d="M3 5v14M7 5v14M11 5v14M15 5v14M19 5v14M21 5v3M21 16v3M1 5v3M1 16v3"/>
  </symbol>

  <symbol id="alert-triangle" viewBox="0 0 24 24" fill="none" stroke="currentColor" stroke-width="2" stroke-linecap="round" stroke-linejoin="round">
    <path d="M10.29 3.86L1.82 18a2 2 0 0 0 1.71 3h16.94a2 2 0 0 0 1.71-3L13.71 3.86a2 2 0 0 0-3.42 0z"/>
    <line x1="12" y1="9" x2="12" y2="13"/>
    <line x1="12" y1="17" x2="12.01" y2="17"/>
  </symbol>

  <symbol id="hard-hat" viewBox="0 0 24 24" fill="none" stroke="currentColor" stroke-width="2" stroke-linecap="round" stroke-linejoin="round">
    <path d="M2 18a1 1 0 0 0 1 1h18a1 1 0 0 0 1-1v-2a1 1 0 0 0-1-1H3a1 1 0 0 0-1 1v2z"/>
    <path d="M10 10V5a1 1 0 0 1 1-1h2a1 1 0 0 1 1 1v5"/>
    <path d="M4 15v-3a8 8 0 0 1 16 0v3"/>
  </symbol>

  <symbol id="compass" viewBox="0 0 24 24" fill="none" stroke="currentColor" stroke-width="2" stroke-linecap="round" stroke-linejoin="round">
    <circle cx="12" cy="12" r="10"/>
    <polygon points="16.24 7.76 14.12 14.12 7.76 16.24 9.88 9.88 16.24 7.76"/>
  </symbol>

  <symbol id="hammer" viewBox="0 0 24 24" fill="none" stroke="currentColor" stroke-width="2" stroke-linecap="round" stroke-linejoin="round">
    <path d="m15 12-8.373 8.373a1 1 0 1 1-3-3L12 9"/>
    <path d="m18 15 4-4"/>
    <path d="m21.5 11.5-1.914-1.914A2 2 0 0 1 19 8.172V7l-2.26-2.26a6 6 0 0 0-4.202-1.756L9 2.96l.92.82A6.18 6.18 0 0 1 12 8.4V10l2 2h1.172a2 2 0 0 1 1.414.586L18.5 14.5"/>
  </symbol>

  <symbol id="clipboard-list" viewBox="0 0 24 24" fill="none" stroke="currentColor" stroke-width="2" stroke-linecap="round" stroke-linejoin="round">
    <rect x="8" y="2" width="8" height="4" rx="1" ry="1"/>
    <path d="M16 4h2a2 2 0 0 1 2 2v14a2 2 0 0 1-2 2H6a2 2 0 0 1-2-2V6a2 2 0 0 1 2-2h2"/>
    <line x1="12" y1="11" x2="16" y2="11"/>
    <line x1="12" y1="15" x2="16" y2="15"/>
    <line x1="8" y1="11" x2="8.01" y2="11"/>
    <line x1="8" y1="15" x2="8.01" y2="15"/>
  </symbol>

  <symbol id="home" viewBox="0 0 24 24" fill="none" stroke="currentColor" stroke-width="2" stroke-linecap="round" stroke-linejoin="round">
    <path d="m3 9 9-7 9 7v11a2 2 0 0 1-2 2H5a2 2 0 0 1-2-2z"/>
    <polyline points="9 22 9 12 15 12 15 22"/>
  </symbol>

  <symbol id="key" viewBox="0 0 24 24" fill="none" stroke="currentColor" stroke-width="2" stroke-linecap="round" stroke-linejoin="round">
    <circle cx="7.5" cy="15.5" r="5.5"/>
    <path d="m21 2-9.6 9.6"/>
    <path d="m15.5 7.5 3 3L22 7l-3-3"/>
  </symbol>

  <symbol id="funnel" viewBox="0 0 24 24" fill="none" stroke="currentColor" stroke-width="2" stroke-linecap="round" stroke-linejoin="round">
    <polygon points="22 3 2 3 10 12.46 10 19 14 21 14 12.46 22 3"/>
  </symbol>

  <symbol id="target" viewBox="0 0 24 24" fill="none" stroke="currentColor" stroke-width="2" stroke-linecap="round" stroke-linejoin="round">
    <circle cx="12" cy="12" r="10"/>
    <circle cx="12" cy="12" r="6"/>
    <circle cx="12" cy="12" r="2"/>
  </symbol>

  <symbol id="megaphone" viewBox="0 0 24 24" fill="none" stroke="currentColor" stroke-width="2" stroke-linecap="round" stroke-linejoin="round">
    <path d="m3 11 18-5v12L3 14v-3z"/>
    <path d="M11.6 16.8a3 3 0 1 1-5.8-1.6"/>
  </symbol>

  <symbol id="building" viewBox="0 0 24 24" fill="none" stroke="currentColor" stroke-width="2" stroke-linecap="round" stroke-linejoin="round">
    <rect x="4" y="2" width="16" height="20" rx="2"/>
    <line x1="9" y1="7" x2="9" y2="7.01"/>
    <line x1="15" y1="7" x2="15" y2="7.01"/>
    <line x1="9" y1="12" x2="9" y2="12.01"/>
    <line x1="15" y1="12" x2="15" y2="12.01"/>
    <line x1="9" y1="17" x2="9" y2="17.01"/>
    <line x1="15" y1="17" x2="15" y2="17.01"/>
  </symbol>
  <!-- Logística y Transporte -->
  <symbol id="truck" viewBox="0 0 24 24" fill="none" stroke="currentColor" stroke-width="2" stroke-linecap="round" stroke-linejoin="round">
    <path d="M1 3h15v13H1z"/>
    <path d="M16 8h4l3 3v5h-7V8z"/>
    <circle cx="5.5" cy="18.5" r="2.5"/>
    <circle cx="18.5" cy="18.5" r="2.5"/>
  </symbol>
  <symbol id="wrench" viewBox="0 0 24 24" fill="none" stroke="currentColor" stroke-width="2" stroke-linecap="round" stroke-linejoin="round">
    <path d="M14.7 6.3a1 1 0 0 0 0 1.4l1.6 1.6a1 1 0 0 0 1.4 0l3.77-3.77a6 6 0 0 1-7.94 7.94l-6.91 6.91a2.12 2.12 0 0 1-3-3l6.91-6.91a6 6 0 0 1 7.94-7.94l-3.76 3.76z"/>
  </symbol>
  <symbol id="route" viewBox="0 0 24 24" fill="none" stroke="currentColor" stroke-width="2" stroke-linecap="round" stroke-linejoin="round">
    <circle cx="6" cy="19" r="3"/>
    <path d="M9 19h8.5a3.5 3.5 0 0 0 0-7H5.5a3.5 3.5 0 0 1 0-7H15"/>
    <circle cx="18" cy="5" r="3"/>
  </symbol>
  <!-- Financiero -->
  <symbol id="landmark" viewBox="0 0 24 24" fill="none" stroke="currentColor" stroke-width="2" stroke-linecap="round" stroke-linejoin="round">
    <line x1="3" y1="22" x2="21" y2="22"/>
    <line x1="6" y1="18" x2="6" y2="11"/>
    <line x1="10" y1="18" x2="10" y2="11"/>
    <line x1="14" y1="18" x2="14" y2="11"/>
    <line x1="18" y1="18" x2="18" y2="11"/>
    <polygon points="12 2 20 7 4 7"/>
  </symbol>
  <symbol id="percent" viewBox="0 0 24 24" fill="none" stroke="currentColor" stroke-width="2" stroke-linecap="round" stroke-linejoin="round">
    <line x1="19" y1="5" x2="5" y2="19"/>
    <circle cx="6.5" cy="6.5" r="2.5"/>
    <circle cx="17.5" cy="17.5" r="2.5"/>
  </symbol>
  <symbol id="shield-alert" viewBox="0 0 24 24" fill="none" stroke="currentColor" stroke-width="2" stroke-linecap="round" stroke-linejoin="round">
    <path d="M12 22s8-4 8-10V5l-8-3-8 3v7c0 6 8 10 8 10z"/>
    <line x1="12" y1="8" x2="12" y2="12"/>
    <line x1="12" y1="16" x2="12.01" y2="16"/>
  </symbol>
  <!-- Ecommerce -->
  <symbol id="shopping-cart" viewBox="0 0 24 24" fill="none" stroke="currentColor" stroke-width="2" stroke-linecap="round" stroke-linejoin="round">
    <circle cx="9" cy="21" r="1"/>
    <circle cx="20" cy="21" r="1"/>
    <path d="M1 1h4l2.68 13.39a2 2 0 0 0 2 1.61h9.72a2 2 0 0 0 2-1.61L23 6H6"/>
  </symbol>
  <symbol id="store" viewBox="0 0 24 24" fill="none" stroke="currentColor" stroke-width="2" stroke-linecap="round" stroke-linejoin="round">
    <path d="M3 9l1-5h16l1 5"/>
    <path d="M3 9a2 2 0 0 0 2 2h14a2 2 0 0 0 2-2"/>
    <path d="M5 11v8a1 1 0 0 0 1 1h12a1 1 0 0 0 1-1v-8"/>
    <line x1="10" y1="15" x2="14" y2="15"/>
  </symbol>
  <symbol id="mouse-pointer" viewBox="0 0 24 24" fill="none" stroke="currentColor" stroke-width="2" stroke-linecap="round" stroke-linejoin="round">
    <path d="M3 3l7.07 16.97 2.51-7.39 7.39-2.51L3 3z"/>
    <path d="M13 13l6 6"/>
  </symbol>
  <!-- Educación -->
  <symbol id="graduation-cap" viewBox="0 0 24 24" fill="none" stroke="currentColor" stroke-width="2" stroke-linecap="round" stroke-linejoin="round">
    <path d="M22 10v6M2 10l10-5 10 5-10 5z"/>
    <path d="M6 12v5c3 3 9 3 12 0v-5"/>
  </symbol>
  <symbol id="book-open" viewBox="0 0 24 24" fill="none" stroke="currentColor" stroke-width="2" stroke-linecap="round" stroke-linejoin="round">
    <path d="M2 3h6a4 4 0 0 1 4 4v14a3 3 0 0 0-3-3H2z"/>
    <path d="M22 3h-6a4 4 0 0 0-4 4v14a3 3 0 0 1 3-3h7z"/>
  </symbol>
</svg>