<svg xmlns="http://www.w3.org/2000/svg" xmlns:xlink="http://www.w3.org/1999/xlink" width="2000" zoomAndPan="magnify" viewBox="0 0 1500 1499.999933" height="2000" preserveAspectRatio="xMidYMid meet" version="1.0"><defs><g/><clipPath id="761b711acb"><path d="M 7.84375 7.84375 L 1492.15625 7.84375 L 1492.15625 1492.15625 L 7.84375 1492.15625 Z M 7.84375 7.84375 " clip-rule="nonzero"/></clipPath><clipPath id="998f8f9a32"><path d="M 750 7.84375 C 340.117188 7.84375 7.84375 340.117188 7.84375 750 C 7.84375 1159.882812 340.117188 1492.15625 750 1492.15625 C 1159.882812 1492.15625 1492.15625 1159.882812 1492.15625 750 C 1492.15625 340.117188 1159.882812 7.84375 750 7.84375 Z M 750 7.84375 " clip-rule="nonzero"/></clipPath><clipPath id="75db110f8e"><path d="M 0.84375 0.84375 L 1485.15625 0.84375 L 1485.15625 1485.15625 L 0.84375 1485.15625 Z M 0.84375 0.84375 " clip-rule="nonzero"/></clipPath><clipPath id="83b9160383"><path d="M 743 0.84375 C 333.117188 0.84375 0.84375 333.117188 0.84375 743 C 0.84375 1152.882812 333.117188 1485.15625 743 1485.15625 C 1152.882812 1485.15625 1485.15625 1152.882812 1485.15625 743 C 1485.15625 333.117188 1152.882812 0.84375 743 0.84375 Z M 743 0.84375 " clip-rule="nonzero"/></clipPath><clipPath id="c53dc8ed21"><rect x="0" width="1486" y="0" height="1486"/></clipPath></defs><g clip-path="url(#761b711acb)"><g clip-path="url(#998f8f9a32)"><g transform="matrix(1, 0, 0, 1, 7, 7)"><g clip-path="url(#c53dc8ed21)"><g clip-path="url(#75db110f8e)"><g clip-path="url(#83b9160383)"><path fill="#004aad" d="M 0.84375 0.84375 L 1485.15625 0.84375 L 1485.15625 1485.15625 L 0.84375 1485.15625 Z M 0.84375 0.84375 " fill-opacity="1" fill-rule="nonzero"/></g></g></g></g></g></g><path stroke-linecap="round" transform="matrix(0.75, 0, 0, 0.75, 395.833504, 332.934443)" fill="none" stroke-linejoin="miter" d="M 29.998039 29.99887 L 222.07618 29.99887 " stroke="#ec7807" stroke-width="60" stroke-opacity="1" stroke-miterlimit="4"/><path stroke-linecap="round" transform="matrix(0.75, -0.000000000000000186, 0.000000000000000186, 0.75, 279.940116, 445.650494)" fill="none" stroke-linejoin="miter" d="M 30.001723 30.002469 L 449.621551 30.002469 " stroke="#ec7807" stroke-width="60" stroke-opacity="1" stroke-miterlimit="4"/><path stroke-linecap="round" transform="matrix(0.75, -0.000000000000000372, 0.000000000000000372, 0.75, 59.73365, 671.871954)" fill="none" stroke-linejoin="miter" d="M 30.00097 29.998855 L 217.818694 29.998855 " stroke="#ec7807" stroke-width="60" stroke-opacity="1" stroke-miterlimit="4"/><path stroke-linecap="round" transform="matrix(0.75, -0.000000000000000372, 0.000000000000000372, 0.75, 59.73365, 782.190033)" fill="none" stroke-linejoin="miter" d="M 30.00097 30.001834 L 217.818694 30.001834 " stroke="#ec7807" stroke-width="60" stroke-opacity="1" stroke-miterlimit="4"/><path stroke-linecap="round" transform="matrix(0.75, 0.000000000000001616, -0.000000000000001616, 0.75, 166.444706, 896.904335)" fill="none" stroke-linejoin="miter" d="M 30.000811 30.002556 L 75.537273 30.002556 " stroke="#ec7807" stroke-width="60" stroke-opacity="1" stroke-miterlimit="4"/><path stroke-linecap="round" transform="matrix(0.75, 0, 0, 0.75, 166.444692, 557.121964)" fill="none" stroke-linejoin="miter" d="M 30.00083 29.998842 L 75.537292 29.998842 " stroke="#ec7807" stroke-width="60" stroke-opacity="1" stroke-miterlimit="4"/><path stroke-linecap="round" transform="matrix(0.75, 0, 0, 0.75, 279.940116, 1010.548381)" fill="none" stroke-linejoin="miter" d="M 30.001723 29.997995 L 449.621551 29.997995 " stroke="#ec7807" stroke-width="60" stroke-opacity="1" stroke-miterlimit="4"/><path stroke-linecap="round" transform="matrix(0.75, 0.000000000000000658, -0.000000000000000658, 0.75, 395.833504, 1122.065379)" fill="none" stroke-linejoin="miter" d="M 29.998039 30.001372 L 229.034514 30.001372 " stroke="#ec7807" stroke-width="60" stroke-opacity="1" stroke-miterlimit="4"/><path stroke-linecap="butt" transform="matrix(0.75, 0, 0, 0.75, 186.38568, 573.996963)" fill="none" stroke-linejoin="miter" d="M 0.00138434 7.498842 L 25.30347 7.498842 " stroke="#ec7807" stroke-width="15" stroke-opacity="1" stroke-miterlimit="4"/><path stroke-linecap="round" transform="matrix(0.75, 0, 0, 0.75, 186.38568, 573.996963)" fill-opacity="1" fill="#ec7807" fill-rule="nonzero" stroke-linejoin="round" d="M 74.053474 -15.00116 L 29.05347 -15.00116 L 29.05347 29.998844 L 74.053474 29.998844 Z M 74.053474 -15.00116 " stroke="#ec7807" stroke-width="15" stroke-opacity="1" stroke-miterlimit="4"/><path stroke-linecap="butt" transform="matrix(0.75, 0, 0, 0.75, 184.435695, 688.746953)" fill="none" stroke-linejoin="miter" d="M 0.00240658 7.498855 L 25.299284 7.498855 " stroke="#ec7807" stroke-width="15" stroke-opacity="1" stroke-miterlimit="4"/><path stroke-linecap="round" transform="matrix(0.75, 0, 0, 0.75, 184.435695, 688.746953)" fill-opacity="1" fill="#ec7807" fill-rule="nonzero" stroke-linejoin="round" d="M 74.049288 -15.001147 L 29.049284 -15.001147 L 29.049284 29.998857 L 74.049288 29.998857 Z M 74.049288 -15.001147 " stroke="#ec7807" stroke-width="15" stroke-opacity="1" stroke-miterlimit="4"/><path stroke-linecap="butt" transform="matrix(0.75, 0, 0, 0.75, 184.435695, 799.065031)" fill="none" stroke-linejoin="miter" d="M 0.00240658 7.501834 L 25.299284 7.501834 " stroke="#ec7807" stroke-width="15" stroke-opacity="1" stroke-miterlimit="4"/><path stroke-linecap="round" transform="matrix(0.75, 0, 0, 0.75, 184.435695, 799.065031)" fill-opacity="1" fill="#ec7807" fill-rule="nonzero" stroke-linejoin="round" d="M 74.049288 -14.998168 L 29.049284 -14.998168 L 29.049284 30.001836 L 74.049288 30.001836 Z M 74.049288 -14.998168 " stroke="#ec7807" stroke-width="15" stroke-opacity="1" stroke-miterlimit="4"/><path stroke-linecap="butt" transform="matrix(0.75, 0, 0, 0.75, 184.435695, 913.779333)" fill="none" stroke-linejoin="miter" d="M 0.00240658 7.502556 L 25.299284 7.502556 " stroke="#ec7807" stroke-width="15" stroke-opacity="1" stroke-miterlimit="4"/><path stroke-linecap="round" transform="matrix(0.75, 0, 0, 0.75, 184.435695, 913.779333)" fill-opacity="1" fill="#ec7807" fill-rule="nonzero" stroke-linejoin="round" d="M 74.049288 -14.997446 L 29.049284 -14.997446 L 29.049284 30.002558 L 74.049288 30.002558 Z M 74.049288 -14.997446 " stroke="#ec7807" stroke-width="15" stroke-opacity="1" stroke-miterlimit="4"/><g fill="#ffffff" fill-opacity="1"><g transform="translate(258.239133, 913.632333)"><g><path d="M 246.75 0 L 23.84375 0 L 23.84375 -351.6875 L 239.375 -351.6875 C 278.988281 -351.6875 307.972656 -343.738281 326.328125 -327.84375 C 344.679688 -311.945312 353.859375 -291.128906 353.859375 -265.390625 L 353.859375 -264.96875 C 353.859375 -248.195312 349.519531 -232.941406 340.84375 -219.203125 C 332.175781 -205.472656 320.179688 -194.992188 304.859375 -187.765625 C 325.390625 -181.703125 341.363281 -171.148438 352.78125 -156.109375 C 364.195312 -141.078125 369.90625 -123.585938 369.90625 -103.640625 L 369.90625 -103.203125 C 369.90625 -69.378906 359.640625 -43.722656 339.109375 -26.234375 C 318.585938 -8.742188 287.800781 0 246.75 0 Z M 91.9375 -287.953125 L 91.9375 -205.984375 L 232.4375 -205.984375 C 250.363281 -205.984375 263.660156 -209.597656 272.328125 -216.828125 C 281.003906 -224.054688 285.34375 -233.882812 285.34375 -246.3125 L 285.34375 -246.75 C 285.34375 -258.601562 281.003906 -268.429688 272.328125 -276.234375 C 263.660156 -284.046875 250.363281 -287.953125 232.4375 -287.953125 Z M 91.9375 -153.953125 L 91.9375 -63.75 L 241.109375 -63.75 C 260.765625 -63.75 275.582031 -68.007812 285.5625 -76.53125 C 295.539062 -85.0625 300.53125 -96.703125 300.53125 -111.453125 L 300.53125 -111.890625 C 300.53125 -125.472656 295.25 -135.878906 284.6875 -143.109375 C 274.132812 -150.335938 259.03125 -153.953125 239.375 -153.953125 Z M 91.9375 -153.953125 "/></g></g></g><g fill="#ffffff" fill-opacity="1"><g transform="translate(635.513933, 913.632333)"><g><path d="M 227.671875 5.640625 C 184.878906 5.640625 147.800781 -1.800781 116.4375 -16.6875 C 85.070312 -31.582031 60.785156 -52.546875 43.578125 -79.578125 C 26.378906 -106.609375 17.78125 -138.191406 17.78125 -174.328125 L 17.78125 -175.203125 C 17.78125 -211.910156 26.304688 -243.925781 43.359375 -271.25 C 60.421875 -298.570312 84.707031 -319.820312 116.21875 -335 C 147.726562 -350.175781 185.023438 -357.765625 228.109375 -357.765625 C 244.585938 -357.765625 261.644531 -356.460938 279.28125 -353.859375 C 296.914062 -351.253906 314.257812 -347.492188 331.3125 -342.578125 C 348.375 -337.671875 364.128906 -331.601562 378.578125 -324.375 L 349.53125 -265.828125 C 332.757812 -274.210938 313.894531 -281.003906 292.9375 -286.203125 C 271.976562 -291.410156 250.367188 -294.015625 228.109375 -294.015625 C 198.898438 -294.015625 173.742188 -289.242188 152.640625 -279.703125 C 131.535156 -270.160156 115.347656 -256.5 104.078125 -238.71875 C 92.804688 -220.945312 87.171875 -199.773438 87.171875 -175.203125 L 87.171875 -174.328125 C 87.171875 -150.617188 93.023438 -130.09375 104.734375 -112.75 C 116.441406 -95.40625 132.847656 -81.960938 153.953125 -72.421875 C 175.054688 -62.878906 199.628906 -58.109375 227.671875 -58.109375 C 247.617188 -58.109375 268.285156 -60.421875 289.671875 -65.046875 C 311.066406 -69.671875 331.019531 -76.609375 349.53125 -85.859375 L 378.578125 -27.328125 C 357.765625 -17.492188 333.84375 -9.539062 306.8125 -3.46875 C 279.78125 2.601562 253.398438 5.640625 227.671875 5.640625 Z M 227.671875 5.640625 "/></g></g></g><g fill="#ffffff" fill-opacity="1"><g transform="translate(1027.099226, 913.632333)"><g><path d="M 91.5 0 L 23.84375 0 L 23.84375 -351.6875 L 245.453125 -351.6875 C 275.515625 -351.6875 299.941406 -347.0625 318.734375 -337.8125 C 337.523438 -328.5625 351.328125 -315.695312 360.140625 -299.21875 C 368.960938 -282.738281 373.375 -263.367188 373.375 -241.109375 L 373.375 -240.671875 C 373.375 -203.671875 362.675781 -175.125 341.28125 -155.03125 C 319.894531 -134.9375 288.097656 -124.890625 245.890625 -124.890625 L 91.5 -124.890625 Z M 91.5 -288.375 L 91.5 -182.5625 L 242.40625 -182.5625 C 263.226562 -182.5625 278.625 -187.40625 288.59375 -197.09375 C 298.570312 -206.78125 303.5625 -219.71875 303.5625 -235.90625 L 303.5625 -236.78125 C 303.5625 -254.695312 297.992188 -267.773438 286.859375 -276.015625 C 275.734375 -284.253906 260.914062 -288.375 242.40625 -288.375 Z M 91.5 -288.375 "/></g></g></g><g fill="#ffffff" fill-opacity="1"><g transform="translate(675.81555, 1057.045665)"><g><path d="M 44.203125 1.1875 C 35.796875 1.1875 28.515625 -0.265625 22.359375 -3.171875 C 16.203125 -6.078125 11.457031 -10.171875 8.125 -15.453125 C 4.800781 -20.734375 3.140625 -26.898438 3.140625 -33.953125 L 3.140625 -34.125 C 3.140625 -41.300781 4.789062 -47.566406 8.09375 -52.921875 C 11.394531 -58.285156 16.117188 -62.460938 22.265625 -65.453125 C 28.421875 -68.453125 35.765625 -69.953125 44.296875 -69.953125 C 47.515625 -69.953125 50.898438 -69.695312 54.453125 -69.1875 C 58.015625 -68.675781 61.5 -67.941406 64.90625 -66.984375 C 68.320312 -66.023438 71.414062 -64.894531 74.1875 -63.59375 L 66.484375 -47.9375 C 63.429688 -49.40625 59.925781 -50.585938 55.96875 -51.484375 C 52.019531 -52.390625 48.128906 -52.84375 44.296875 -52.84375 C 37.117188 -52.84375 31.566406 -51.21875 27.640625 -47.96875 C 23.722656 -44.726562 21.765625 -40.113281 21.765625 -34.125 L 21.765625 -33.953125 C 21.765625 -30.234375 22.695312 -27.015625 24.5625 -24.296875 C 26.425781 -21.585938 29.035156 -19.5 32.390625 -18.03125 C 35.753906 -16.570312 39.691406 -15.84375 44.203125 -15.84375 C 47.929688 -15.84375 51.800781 -16.28125 55.8125 -17.15625 C 59.820312 -18.03125 63.378906 -19.226562 66.484375 -20.75 L 74.1875 -5.078125 C 71.476562 -3.835938 68.425781 -2.738281 65.03125 -1.78125 C 61.644531 -0.820312 58.160156 -0.0859375 54.578125 0.421875 C 50.992188 0.929688 47.535156 1.1875 44.203125 1.1875 Z M 44.203125 1.1875 "/></g></g></g><g fill="#ffffff" fill-opacity="1"><g transform="translate(747.877365, 1057.045665)"><g><path d="M 45.8125 1.1875 C 36.945312 1.1875 29.320312 -0.289062 22.9375 -3.25 C 16.5625 -6.21875 11.664062 -10.382812 8.25 -15.75 C 4.84375 -21.113281 3.140625 -27.351562 3.140625 -34.46875 L 3.140625 -34.546875 C 3.140625 -41.660156 4.84375 -47.867188 8.25 -53.171875 C 11.664062 -58.484375 16.5625 -62.609375 22.9375 -65.546875 C 29.320312 -68.484375 36.945312 -69.953125 45.8125 -69.953125 C 54.738281 -69.953125 62.375 -68.484375 68.71875 -65.546875 C 75.070312 -62.609375 79.957031 -58.484375 83.375 -53.171875 C 86.789062 -47.867188 88.5 -41.660156 88.5 -34.546875 L 88.5 -34.46875 C 88.5 -27.351562 86.789062 -21.113281 83.375 -15.75 C 79.957031 -10.382812 75.070312 -6.21875 68.71875 -3.25 C 62.375 -0.289062 54.738281 1.1875 45.8125 1.1875 Z M 45.8125 -15.921875 C 53.207031 -15.921875 59.050781 -17.570312 63.34375 -20.875 C 67.632812 -24.175781 69.78125 -28.648438 69.78125 -34.296875 L 69.78125 -34.390625 C 69.78125 -38.171875 68.804688 -41.441406 66.859375 -44.203125 C 64.910156 -46.972656 62.144531 -49.101562 58.5625 -50.59375 C 54.976562 -52.09375 50.726562 -52.84375 45.8125 -52.84375 C 38.082031 -52.84375 32.140625 -51.234375 27.984375 -48.015625 C 23.835938 -44.796875 21.765625 -40.253906 21.765625 -34.390625 L 21.765625 -34.296875 C 21.765625 -28.648438 23.921875 -24.175781 28.234375 -20.875 C 32.554688 -17.570312 38.414062 -15.921875 45.8125 -15.921875 Z M 45.8125 -15.921875 "/></g></g></g><g fill="#ffffff" fill-opacity="1"><g transform="translate(839.500747, 1057.045665)"><g><path d="M 60.546875 -18.71875 L 60.546875 -68.6875 L 78.84375 -68.6875 L 78.84375 0 L 54.53125 0 L 22.359375 -52.078125 L 22.359375 0 L 4.0625 0 L 4.0625 -68.6875 L 29.296875 -68.6875 Z M 60.546875 -18.71875 "/></g></g></g><g fill="#ffffff" fill-opacity="1"><g transform="translate(922.40213, 1057.045665)"><g><path d="M 38.1875 1.1875 C 33.332031 1.1875 28.632812 0.914062 24.09375 0.375 C 19.550781 -0.15625 15.382812 -0.882812 11.59375 -1.8125 C 7.8125 -2.75 4.679688 -3.8125 2.203125 -5 L 10.421875 -20.578125 C 13.921875 -18.992188 18 -17.804688 22.65625 -17.015625 C 27.3125 -16.234375 32.148438 -15.84375 37.171875 -15.84375 C 42.421875 -15.84375 46.414062 -16.09375 49.15625 -16.59375 C 51.894531 -17.101562 53.265625 -18.148438 53.265625 -19.734375 L 53.265625 -19.90625 C 53.265625 -20.863281 52.6875 -21.664062 51.53125 -22.3125 C 50.375 -22.957031 48.394531 -23.601562 45.59375 -24.25 C 42.800781 -24.90625 38.953125 -25.6875 34.046875 -26.59375 C 27.378906 -27.832031 21.972656 -29.351562 17.828125 -31.15625 C 13.679688 -32.96875 10.632812 -35.3125 8.6875 -38.1875 C 6.738281 -41.070312 5.765625 -44.6875 5.765625 -49.03125 L 5.765625 -49.203125 C 5.765625 -55.921875 8.515625 -61.054688 14.015625 -64.609375 C 19.515625 -68.171875 27.546875 -69.953125 38.109375 -69.953125 C 42.234375 -69.953125 46.34375 -69.640625 50.4375 -69.015625 C 54.53125 -68.398438 58.367188 -67.582031 61.953125 -66.5625 C 65.535156 -65.550781 68.566406 -64.394531 71.046875 -63.09375 L 62.75 -47.9375 C 60.78125 -48.945312 58.3125 -49.832031 55.34375 -50.59375 C 52.375 -51.363281 49.28125 -51.941406 46.0625 -52.328125 C 42.851562 -52.722656 39.835938 -52.921875 37.015625 -52.921875 C 32.546875 -52.921875 29.335938 -52.65625 27.390625 -52.125 C 25.441406 -51.59375 24.441406 -50.644531 24.390625 -49.28125 L 24.390625 -49.125 C 24.390625 -48.332031 24.785156 -47.648438 25.578125 -47.078125 C 26.367188 -46.515625 27.878906 -45.9375 30.109375 -45.34375 C 32.335938 -44.75 35.539062 -44.0625 39.71875 -43.28125 C 45.988281 -42.09375 51.210938 -40.804688 55.390625 -39.421875 C 59.566406 -38.035156 62.878906 -36.4375 65.328125 -34.625 C 67.785156 -32.820312 69.535156 -30.722656 70.578125 -28.328125 C 71.628906 -25.929688 72.15625 -23.09375 72.15625 -19.8125 L 72.15625 -19.640625 C 72.15625 -12.816406 69.257812 -7.640625 63.46875 -4.109375 C 57.6875 -0.578125 49.257812 1.1875 38.1875 1.1875 Z M 38.1875 1.1875 "/></g></g></g><g fill="#ffffff" fill-opacity="1"><g transform="translate(997.512971, 1057.045665)"><g><path d="M 40.5625 1.1875 C 33.394531 1.1875 27.070312 0.144531 21.59375 -1.9375 C 16.113281 -4.03125 11.820312 -7.265625 8.71875 -11.640625 C 5.613281 -16.015625 4.0625 -21.648438 4.0625 -28.546875 L 4.0625 -68.6875 L 22.359375 -68.6875 L 22.359375 -32.515625 C 22.359375 -28.117188 23.175781 -24.71875 24.8125 -22.3125 C 26.445312 -19.914062 28.632812 -18.25 31.375 -17.3125 C 34.113281 -16.382812 37.175781 -15.921875 40.5625 -15.921875 C 43.945312 -15.921875 47.023438 -16.382812 49.796875 -17.3125 C 52.566406 -18.25 54.753906 -19.914062 56.359375 -22.3125 C 57.960938 -24.71875 58.765625 -28.117188 58.765625 -32.515625 L 58.765625 -68.6875 L 77.0625 -68.6875 L 77.0625 -28.546875 C 77.0625 -21.648438 75.507812 -16.015625 72.40625 -11.640625 C 69.300781 -7.265625 65.007812 -4.03125 59.53125 -1.9375 C 54.0625 0.144531 47.738281 1.1875 40.5625 1.1875 Z M 40.5625 1.1875 "/></g></g></g><g fill="#ffffff" fill-opacity="1"><g transform="translate(1078.636103, 1057.045665)"><g><path d="M 64.78125 0 L 4.0625 0 L 4.0625 -68.6875 L 22.359375 -68.6875 L 22.359375 -17.109375 L 64.78125 -17.109375 Z M 64.78125 0 "/></g></g></g><g fill="#ffffff" fill-opacity="1"><g transform="translate(1130.796987, 1057.045665)"><g><path d="M 47.171875 0 L 28.875 0 L 28.875 -51.578125 L 1.6875 -51.578125 L 1.6875 -68.6875 L 74.265625 -68.6875 L 74.265625 -51.578125 L 47.171875 -51.578125 Z M 47.171875 0 "/></g></g></g><g fill="#ffffff" fill-opacity="1"><g transform="translate(1206.754669, 1057.045665)"><g><path d="M 22.359375 0 L 4.0625 0 L 4.0625 -68.6875 L 22.359375 -68.6875 Z M 22.359375 0 "/></g></g></g><g fill="#ffffff" fill-opacity="1"><g transform="translate(1233.174726, 1057.045665)"><g><path d="M 60.546875 -18.71875 L 60.546875 -68.6875 L 78.84375 -68.6875 L 78.84375 0 L 54.53125 0 L 22.359375 -52.078125 L 22.359375 0 L 4.0625 0 L 4.0625 -68.6875 L 29.296875 -68.6875 Z M 60.546875 -18.71875 "/></g></g></g><g fill="#ffffff" fill-opacity="1"><g transform="translate(1316.076086, 1057.045665)"><g><path d="M 59.703125 -40.140625 L 78 -40.140625 L 78 -5 C 75.90625 -4.09375 73.429688 -3.242188 70.578125 -2.453125 C 67.734375 -1.660156 64.726562 -0.992188 61.5625 -0.453125 C 58.40625 0.078125 55.285156 0.492188 52.203125 0.796875 C 49.128906 1.109375 46.320312 1.265625 43.78125 1.265625 C 35.082031 1.265625 27.695312 -0.144531 21.625 -2.96875 C 15.5625 -5.789062 10.960938 -9.835938 7.828125 -15.109375 C 4.703125 -20.390625 3.140625 -26.703125 3.140625 -34.046875 L 3.140625 -34.21875 C 3.140625 -41.726562 4.789062 -48.132812 8.09375 -53.4375 C 11.394531 -58.738281 16.234375 -62.816406 22.609375 -65.671875 C 28.992188 -68.523438 36.785156 -69.953125 45.984375 -69.953125 C 49.597656 -69.953125 53.3125 -69.695312 57.125 -69.1875 C 60.9375 -68.675781 64.644531 -67.953125 68.25 -67.015625 C 71.863281 -66.085938 75.082031 -64.976562 77.90625 -63.6875 L 70.203125 -47.9375 C 67.265625 -49.40625 63.691406 -50.585938 59.484375 -51.484375 C 55.285156 -52.390625 51.125 -52.84375 47 -52.84375 C 38.8125 -52.84375 32.554688 -51.289062 28.234375 -48.1875 C 23.921875 -45.082031 21.765625 -40.425781 21.765625 -34.21875 L 21.765625 -34.046875 C 21.765625 -28.054688 23.738281 -23.523438 27.6875 -20.453125 C 31.644531 -17.378906 37.320312 -15.84375 44.71875 -15.84375 C 46.75 -15.84375 49.101562 -16.007812 51.78125 -16.34375 C 54.46875 -16.6875 57.109375 -17.140625 59.703125 -17.703125 Z M 59.703125 -40.140625 "/></g></g></g></svg>